<?xml version="1.0" encoding="utf-8"?>
<!-- Generator: Adobe Illustrator 22.0.1, SVG Export Plug-In . SVG Version: 6.00 Build 0)  -->
<svg version="1.1" id="Layer_1" xmlns="http://www.w3.org/2000/svg" xmlns:xlink="http://www.w3.org/1999/xlink" x="0px" y="0px"
	 viewBox="0 0 192 176" style="enable-background:new 0 0 192 176;" xml:space="preserve">
<style type="text/css">
	.st0{font-family:'JandaSafeandSound';}
	.st1{font-size:24px;}
	.st2{stroke:#000000;stroke-width:0.5;stroke-miterlimit:10;}
	.st3{fill:#FFFFFF;}
</style>
<text transform="matrix(1 0 0 1 17.4849 166.2973)" class="st0 st1">NewTechLab</text>
<g>
	<g>
		<g>
			<path d="M76.4,93.4c3.2,0,3.2-5,0-5C73.1,88.4,73.1,93.4,76.4,93.4L76.4,93.4z"/>
		</g>
	</g>
	<g>
		<g>
			<path d="M109.4,94.4c3.2,0,3.2-5,0-5C106.1,89.4,106.1,94.4,109.4,94.4L109.4,94.4z"/>
		</g>
	</g>
	<ellipse transform="matrix(0.1887 -0.982 0.982 0.1887 -29.0918 150.1975)" class="st2" cx="76.4" cy="92.7" rx="25.5" ry="19.8"/>
	
		<ellipse transform="matrix(0.9967 -8.132377e-02 8.132377e-02 0.9967 -7.0691 10.1759)" class="st2" cx="121.4" cy="91.9" rx="19.8" ry="25.5"/>
	<g>
		<g>
			<g>
				<path d="M93,126.9c1.8,1,3.5,2.1,5.3,3.1c1,0.6,2.3,1.7,3.6,1.8c1,0.1,1.7-0.5,2.5-1.1c1.7-1.2,3.4-2.5,5.1-3.7
					c1.3-0.9,0-3.1-1.3-2.2c-1.1,0.8-2.3,1.6-3.4,2.5c-0.8,0.5-1.9,1.8-2.9,1.9c-0.8,0.1-3.1-1.8-3.8-2.3c-1.3-0.8-2.5-1.5-3.8-2.3
					C92.8,124,91.6,126.1,93,126.9L93,126.9z"/>
			</g>
		</g>
		<g>
			<g>
				<path d="M96.1,126.5c3-0.4,7.3-1.5,10.3-0.2c2.9,1.3,5.5-3,2.5-4.3c-4.5-1.9-9.4-1-14.1-0.3C91.6,122.1,92.9,126.9,96.1,126.5
					L96.1,126.5z"/>
			</g>
		</g>
		<g>
			<g>
				<path d="M107.4,121.8c-1.7,0.1-3.4,0.4-4.8,1.3c-0.6,0.4-1.1,1-1.8,1.4c-0.7,0.3-1.3,0.2-2,0c-3.1-0.8-4.5,4.1-1.3,4.8
					c1.8,0.4,3.7,0.6,5.4-0.2c1.6-0.8,2.6-2.2,4.6-2.3C110.7,126.7,110.7,121.7,107.4,121.8L107.4,121.8z"/>
			</g>
		</g>
		<g>
			<g>
				<path d="M94.1,127.1c3.2,0,3.2-5,0-5C90.9,122.1,90.9,127.1,94.1,127.1L94.1,127.1z"/>
			</g>
		</g>
		<g>
			<g>
				<path d="M108.5,126.8c3.2,0,3.2-5,0-5C105.2,121.8,105.2,126.8,108.5,126.8L108.5,126.8z"/>
			</g>
		</g>
	</g>
	<ellipse class="st3" cx="122.4" cy="92.7" rx="7.3" ry="8.7"/>
	<ellipse class="st3" cx="76.4" cy="94.3" rx="7.3" ry="8.7"/>
	<g>
		<g>
			<path d="M100,131.6c0,1.8,0,3.6,0,5.4c0,1.6,2.5,1.6,2.5,0c0-1.8,0-3.6,0-5.4C102.5,130,100,130,100,131.6L100,131.6z"/>
		</g>
	</g>
	<g>
		<g>
			<path d="M100.6,135.9c-2.2,1.1-4.3,2.3-6.3,3.6c-1.4,0.8-0.1,3,1.3,2.2c2.1-1.3,4.2-2.5,6.3-3.6
				C103.3,137.3,102.1,135.2,100.6,135.9L100.6,135.9z"/>
		</g>
	</g>
	<g>
		<g>
			<path d="M101,138.1c1.7,1.1,3.5,2.1,5.2,3.2c1.4,0.8,2.6-1.3,1.3-2.2c-1.7-1.1-3.5-2.1-5.2-3.2C100.9,135.1,99.7,137.3,101,138.1
				L101,138.1z"/>
		</g>
	</g>
</g>
<g>
	<g>
		<path d="M49.4,45.9c1.4-6.6-3.6-11.3-9.7-12.8c-3-0.7-7.7-1.6-10.5-0.1c-2.5,1.3-3.8,4.7-4.8,7.2c-2.5,6.6-2.2,14.2,0.5,20.6
			c1.3,3.1,6.1,12.5,10.7,9.2c1.3-0.9,0.1-3.1-1.3-2.2c-2.9,2.1-7.5-8.8-8-10.5c-1.2-3.8-1.5-7.9-0.8-11.8c0.7-4.3,2.3-9.8,7.3-10.6
			c6-1,15.6,2.9,14.1,10.3C46.6,46.8,49,47.5,49.4,45.9L49.4,45.9z"/>
	</g>
</g>
<g>
	<g>
		<path d="M34.5,67.6C26.8,78.9,24.2,92.4,24,105.8c-0.2,13.7,1.2,28.1,8.7,39.9c0.9,1.4,3,0.1,2.2-1.3c-7.3-11.5-8.5-25.4-8.3-38.7
			c0.2-13,2.6-26,10.1-36.9C37.6,67.6,35.4,66.3,34.5,67.6L34.5,67.6z"/>
	</g>
</g>
<g>
	<g>
		<path d="M165.5,145.6c8.1-10.1,8.2-24.7,6.7-37c-1.6-13.9-6.6-27.2-14.3-38.9c-0.9-1.3-3-0.1-2.2,1.3
			c6.9,10.5,11.6,22.2,13.5,34.6c1.9,12.2,2.6,28-5.6,38.2C162.7,145.1,164.5,146.9,165.5,145.6L165.5,145.6z"/>
	</g>
</g>
<g>
	<g>
		<path d="M143.5,44.2c-0.7-6,13.8-5.4,16.9-4.2c5.1,2,9.1,7.1,9.3,12.6c0.2,5.1-2.5,10.3-6.8,13c-2.9,1.8-6.8,1.7-9,4.6
			c-1,1.3,0.8,3,1.8,1.8c2-2.6,6.9-2.9,9.7-5c2.4-1.8,4.3-4.2,5.5-6.9c2.4-5.4,1.7-11.5-1.8-16.3c-3.7-5.1-9.5-7.6-15.8-7.1
			c-4.2,0.4-12.9,1.8-12.2,7.6C141.2,45.8,143.7,45.8,143.5,44.2L143.5,44.2z"/>
	</g>
</g>
<g>
	<g>
		<path d="M81.5,35.9c-3.3-6.2-7.3-11.9-12.1-17.2c-0.4,0.7-0.8,1.4-1.2,2.1c8.7,1.2,15,6.9,21,12.8c1,0.9,2.2,0,2.1-1.2
			c-1.1-7.8-3.8-15-8.2-21.5c-0.9-1.3-3.1-0.1-2.2,1.3c4.3,6.4,6.9,13.3,8,20.9c0.7-0.4,1.4-0.8,2.1-1.2
			c-6.3-6.1-13.1-12.2-22.1-13.4c-1.2-0.2-2.1,1.1-1.2,2.1c4.6,5.1,8.4,10.6,11.7,16.7C80.1,38.5,82.3,37.3,81.5,35.9L81.5,35.9z"/>
	</g>
</g>
<g>
	<g>
		<path d="M87.8,12.2c6.2,0,12.5,0,18.7,0c1.6,0,1.6-2.5,0-2.5c-6.2,0-12.5,0-18.7,0C86.2,9.7,86.2,12.2,87.8,12.2L87.8,12.2z"/>
	</g>
</g>
<g>
	<g>
		<path d="M97.5,14.1c-0.6,8,0,15.9,1.6,23.7c0.3,1.6,2.7,0.9,2.4-0.7c-1.6-7.6-2.1-15.3-1.5-23.1C100.1,12.5,97.6,12.5,97.5,14.1
			L97.5,14.1z"/>
	</g>
</g>
<g>
	<g>
		<path d="M112.4,35.2c-0.1-7.5,0.8-14.9,2.8-22.2c0.4-1.6-2-2.2-2.4-0.7c-2,7.5-3,15.1-2.8,22.9C109.9,36.8,112.4,36.8,112.4,35.2
			L112.4,35.2z"/>
	</g>
</g>
<g>
	<g>
		<path d="M111.7,36.7c9.9,0.8,19.8,1.7,28.8,6.4c1.4,0.7,2.7-1.4,1.3-2.2c-9.4-4.8-19.7-5.9-30-6.7
			C110.1,34.1,110.1,36.6,111.7,36.7L111.7,36.7z"/>
	</g>
</g>
<g>
	<g>
		<path d="M50,46c9.6-6.1,20.3-9,31.6-8.7c1.6,0,1.6-2.5,0-2.5c-11.7-0.3-22.9,2.8-32.8,9C47.3,44.7,48.6,46.9,50,46L50,46z"/>
	</g>
</g>
</svg>
